# xmcd
#
# Track frame offsets: 
#        150
#        25009
#        29962
#        52244
#        68970
#        95438
#        132154
#
# Disc length: 1932 seconds
#
# Revision: 8
# Processed by: cddbd v1.5.2PL0 Copyright (c) Steve Scherf et al.
# Submitted via: ExactAudioCopyFreeDBPlugin 1.0
#
DISCID=64078a07
DTITLE=Isengard - Høstmørke
DYEAR=1995
DGENRE=Black Metal
TTITLE0=Neslepaks
TTITLE1=Landet Og Havet
TTITLE2=I Kamp Med Kvitekrist
TTITLE3=I Ei Gran Borti Nordre Åsen
TTITLE4=Over De Syngende Øde Moer
TTITLE5=Thornspawn Chalice
TTITLE6=Total Death
EXTD=Norwegian Black Metal
EXTT0=
EXTT1=
EXTT2=
EXTT3=
EXTT4=
EXTT5=
EXTT6=
PLAYORDER=
